<svg xmlns="http://www.w3.org/2000/svg" version="1.1" xmlns:xlink="http://www.w3.org/1999/xlink" xmlns:svgjs="http://svgjs.dev/svgjs" viewBox="0 0 1422 800"><defs><filter id="llleaves-blur-2" x="-100%" y="-100%" width="400%" height="400%"><feGaussianBlur in="SourceGraphic" stdDeviation="2"></feGaussianBlur></filter><filter id="llleaves-blur-3" x="-100%" y="-100%" width="400%" height="400%"><feGaussianBlur in="SourceGraphic" stdDeviation="4"></feGaussianBlur></filter><filter id="llleaves-blur-4" x="-100%" y="-100%" width="400%" height="400%"><feGaussianBlur in="SourceGraphic" stdDeviation="12"></feGaussianBlur></filter></defs><g fill="hsl(231, 100%, 64%)"><path d="M975 350H1025C1053 350 1075 372 1075 400H1025C997 400 975 378 975 350Z " transform="matrix(-0.35625470245824953,-0.2313545088887071,0.2313545088887071,-0.35625470245824953,1303.4031291864405,745.7338850327683)" opacity="0.65"></path><path d="M658 333H708C736 333 758 355 758 383H708C680 383 658 361 658 333Z " transform="matrix(-0.3231816333760428,0.11762849481041228,-0.11762849481041228,-0.3231816333760428,978.9235975723659,390.4180504228514)" filter="url(#llleaves-blur-2)" opacity="0.53"></path><path d="M908 32H958C986 32 1008 54 1008 82H958C930 82 908 60 908 32Z " transform="matrix(-0.33820084881774615,-0.2738696473856094,0.2738696473856094,-0.33820084881774615,1266.385843266421,338.6445705780254)" opacity="0.67"></path><path d="M758 707H808C836 707 858 729 858 757H808C780 757 758 735 758 707Z " transform="matrix(-0.36921361055250185,0.01934966541013024,-0.01934966541013024,-0.36921361055250185,1120.4885524066367,986.629833273046)" filter="url(#llleaves-blur-2)" opacity="0.57"></path><path d="M393 252H443C471 252 493 274 493 302H443C415 302 393 280 393 252Z " transform="matrix(-0.2218168969803401,0.21420608747645153,-0.21420608747645153,-0.2218168969803401,600.5999715932677,243.5499837114862)" filter="url(#llleaves-blur-2)" opacity="0.47"></path><path d="M809 572H859C887 572 909 594 909 622H859C831 622 809 600 809 572Z " transform="matrix(-0.3770043606360516,-0.006580635593123317,0.006580635593123317,-0.3770043606360516,1178.9181063372735,827.7243692742156)" filter="url(#llleaves-blur-2)" opacity="0.58"></path><path d="M9 64H59C87 64 109 86 109 114H59C31 114 9 92 9 64Z " transform="matrix(-0.2891593431249592,0.16028364120630192,-0.16028364120630192,-0.2891593431249592,90.32564531173347,105.27844670694954)" filter="url(#llleaves-blur-2)" opacity="0.51"></path><path d="M481 715H531C559 715 581 737 581 765H531C503 765 481 743 481 715Z " transform="matrix(-0.2500125866468901,0.19533124039298053,-0.19533124039298053,-0.2500125866468901,808.3018014003042,821.288425470026)" filter="url(#llleaves-blur-2)" opacity="0.49"></path><path d="M1312 56H1362C1390 56 1412 78 1412 106H1362C1334 106 1312 84 1312 56Z " transform="matrix(-0.11094144464006599,-0.4805401909166765,0.4805401909166765,-0.11094144464006599,1474.178492135519,744.4819970443586)" opacity="0.76"></path><path d="M16 411H66C94 411 116 433 116 461H66C38 461 16 439 16 411Z " transform="matrix(-0.16171492596363096,0.23975223725960687,-0.23975223725960687,-0.16171492596363096,181.20516055878824,490.684060061009)" filter="url(#llleaves-blur-3)" opacity="0.44"></path><path d="M11 234H61C89 234 111 256 111 284H61C33 284 11 262 11 234Z " transform="matrix(-0.16171492596363096,0.23975223725960687,-0.23975223725960687,-0.16171492596363096,132.9604399340197,286.2592793517444)" filter="url(#llleaves-blur-3)" opacity="0.44"></path><path d="M973 137H1023C1051 137 1073 159 1073 187H1023C995 187 973 165 973 137Z " transform="matrix(-0.3510328311145958,-0.24579583450553577,0.24579583450553577,-0.3510328311145958,1342.2876610403348,470.31645733972766)" opacity="0.66"></path><path d="M889 709H939C967 709 989 731 989 759H939C911 759 889 737 889 709Z " transform="matrix(-0.38302025586703575,-0.11710104383869914,0.11710104383869914,-0.38302025586703575,1212.7038540815415,1125.0947479709428)" opacity="0.61"></path><path d="M302 158H352C380 158 402 180 402 208H352C324 208 302 186 302 158Z " transform="matrix(-0.20155776582904902,0.2238525771907537,-0.2238525771907537,-0.20155776582904902,463.91335519773327,141.0889639755707)" filter="url(#llleaves-blur-2)" opacity="0.46"></path><path d="M820 338H870C898 338 920 360 920 388H870C842 388 820 366 820 338Z " transform="matrix(-0.38257269682251915,-0.04021001073305821,0.04021001073305821,-0.38257269682251915,1188.2420123394916,536.8565982843352)" filter="url(#llleaves-blur-2)" opacity="0.59"></path><path d="M359 368H409C437 368 459 390 459 418H409C381 418 359 396 359 368Z " transform="matrix(-0.21624734275052251,0.21624734275052254,-0.21624734275052254,-0.21624734275052251,582.430368885919,389.5400425159916)" filter="url(#llleaves-blur-2)" opacity="0.47"></path><path d="M245 284H295C323 284 345 306 345 334H295C267 334 245 312 245 284Z " transform="matrix(-0.18706978954287673,0.23101195118010906,-0.23101195118010906,-0.18706978954287673,421.56828082980235,298.6560393706167)" filter="url(#llleaves-blur-3)" opacity="0.45"></path><path d="M772 32H822C850 32 872 54 872 82H822C794 82 772 60 772 32Z " transform="matrix(-0.3833685915445628,-0.12456400630989661,0.12456400630989661,-0.3833685915445628,1130.0288338899666,181.2436229047751)" opacity="0.62"></path><path d="M25 705H75C103 705 125 727 125 755H75C47 755 25 733 25 705Z " transform="matrix(-0.16171492596363096,0.23975223725960687,-0.23975223725960687,-0.16171492596363096,262.14775264678536,830.0704781589801)" filter="url(#llleaves-blur-3)" opacity="0.44"></path><path d="M544 584H594C622 584 644 606 644 634H594C566 634 544 612 544 584Z " transform="matrix(-0.28479849451555606,0.16442848747335642,-0.16442848747335642,-0.28479849451555606,863.3072546135144,684.7717616008)" filter="url(#llleaves-blur-2)" opacity="0.50"></path><path d="M1086 588H1136C1164 588 1186 610 1186 638H1136C1108 638 1086 616 1086 588Z " transform="matrix(-0.2800341812045807,-0.3584274069608436,0.3584274069608436,-0.2800341812045807,1234.4028293814065,1191.8344873859264)" opacity="0.70"></path><path d="M1051 29H1101C1129 29 1151 51 1151 79H1101C1073 79 1051 57 1051 29Z " transform="matrix(-0.22673553909919014,-0.4090417403521504,0.4090417403521504,-0.22673553909919014,1328.5475745691922,516.5986752390738)" opacity="0.72"></path><path d="M169 702H219C247 702 269 724 269 752H219C191 752 169 730 169 702Z " transform="matrix(-0.17692022627299886,0.2347810701154943,-0.2347810701154943,-0.17692022627299886,428.43136752775115,804.2039501451769)" filter="url(#llleaves-blur-3)" opacity="0.45"></path><path d="M325 715H375C403 715 425 737 425 765H375C347 765 325 743 325 715Z " transform="matrix(-0.20694870431058682,0.2219253150828235,-0.2219253150828235,-0.20694870431058682,616.8304972777594,809.9200480337754)" filter="url(#llleaves-blur-2)" opacity="0.46"></path><path d="M118 333H168C196 333 218 355 218 383H168C140 383 118 361 118 333Z " transform="matrix(-0.16716985541606577,0.23874329579982195,-0.23874329579982195,-0.16716985541606577,281.55463560623537,377.73793454458144)" filter="url(#llleaves-blur-3)" opacity="0.45"></path><path d="M888 456H938C966 456 988 478 988 506H938C910 506 888 484 888 456Z " transform="matrix(-0.38302025586703575,-0.11710104383869914,0.11710104383869914,-0.38302025586703575,1240.9473979168652,775.0735221927439)" opacity="0.61"></path><path d="M512 325H562C590 325 612 347 612 375H562C534 375 512 353 512 325Z " transform="matrix(-0.2627738247599277,0.1839962129410988,-0.1839962129410988,-0.2627738247599277,774.077564044464,338.5649669930772)" filter="url(#llleaves-blur-2)" opacity="0.49"></path><path d="M824 140H874C902 140 924 162 924 190H874C846 190 824 168 824 140Z " transform="matrix(-0.38392054510568185,-0.06769555055043297,0.06769555055043297,-0.38392054510568185,1198.3767905815444,287.51280112351594)" filter="url(#llleaves-blur-2)" opacity="0.60"></path><path d="M256 40H306C334 40 356 62 356 90H306C278 90 256 68 256 40Z " transform="matrix(-0.333411359392864,0.10193408211323875,-0.10193408211323875,-0.333411359392864,414.6495913115769,55.4799092338851)" filter="url(#llleaves-blur-2)" opacity="0.53"></path><path d="M644 26H694C722 26 744 48 744 76H694C666 76 644 54 644 26Z " transform="matrix(-0.3817666636399777,-0.03340025518061253,0.03340025518061253,-0.3817666636399777,957.2426515519334,93.64987694098396)" filter="url(#llleaves-blur-2)" opacity="0.59"></path></g><g fill="none" stroke-width="3" stroke="hsl(231, 100%, 64%)"><path d="M347 491H397C425 491 447 513 447 541H397C369 541 347 519 347 491Z " transform="matrix(-0.21624734275052251,0.21624734275052254,-0.21624734275052254,-0.21624734275052251,594.4338239312272,541.7334337873122)" filter="url(#llleaves-blur-2)" opacity="0.47"></path><path d="M1311 698H1361C1389 698 1411 720 1411 748H1361C1333 748 1311 726 1311 698Z " transform="matrix(-0.13439737523418607,-0.46869934760600757,0.46869934760600757,-0.13439737523418607,1205.0451993745837,1458.0691143860927)" opacity="0.75"></path><path d="M145 174H195C223 174 245 196 245 224H195C167 224 145 202 145 174Z " transform="matrix(-0.1719957925981693,0.23673189932922997,-0.23673189932922997,-0.1719957925981693,275.64882752315975,187.06444235783584)" filter="url(#llleaves-blur-3)" opacity="0.45"></path><path d="M608 455H658C686 455 708 477 708 505H658C630 505 608 483 608 455Z " transform="matrix(-0.30922146736451844,0.13767426738388108,-0.13767426738388108,-0.30922146736451844,927.551373870116,537.8366363963751)" filter="url(#llleaves-blur-2)" opacity="0.52"></path><path d="M1139 345H1189C1217 345 1239 367 1239 395H1189C1161 395 1139 373 1139 345Z " transform="matrix(-0.22663784385765404,-0.40886549347095646,0.40886549347095646,-0.22663784385765404,1307.1921637624966,939.9970739642993)" opacity="0.72"></path><path d="M128 538H178C206 538 228 560 228 588H178C150 588 128 566 128 538Z " transform="matrix(-0.1719957925981693,0.23673189932922997,-0.23673189932922997,-0.1719957925981693,341.89531040483064,617.6953531521664)" filter="url(#llleaves-blur-3)" opacity="0.45"></path><path d="M391 41H441C469 41 491 63 491 91H441C413 91 391 69 391 41Z " transform="matrix(-0.34002019750775714,0.09110813733247446,-0.09110813733247446,-0.34002019750775714,596.9620441648642,48.26264447189074)" filter="url(#llleaves-blur-2)" opacity="0.54"></path><path d="M585 213H635C663 213 685 235 685 263H635C607 263 585 241 585 213Z " transform="matrix(-0.29712060985186356,0.15139051228882963,-0.15139051228882963,-0.29712060985186356,859.7025291806747,212.5817298413367)" filter="url(#llleaves-blur-2)" opacity="0.51"></path><path d="M945 583H995C1023 583 1045 605 1045 633H995C967 633 945 611 945 583Z " transform="matrix(-0.3713074405701626,-0.18919059055713772,0.18919059055713772,-0.3713074405701626,1249.4230243085722,1021.9995614710108)" opacity="0.64"></path><path d="M477 457H527C555 457 577 479 577 507H527C499 507 477 485 477 457Z " transform="matrix(-0.2500125866468901,0.19533124039298053,-0.19533124039298053,-0.2500125866468901,752.9062910323278,499.5665030767002)" filter="url(#llleaves-blur-2)" opacity="0.49"></path><path d="M1036 463H1086C1114 463 1136 485 1136 513H1086C1058 513 1036 491 1036 463Z " transform="matrix(-0.3220964503541087,-0.30035979914659666,0.30035979914659666,-0.3220964503541087,1289.221163101023,971.373809646009)" opacity="0.68"></path><path d="M410 601H460C488 601 510 623 510 651H460C432 651 410 629 410 601Z " transform="matrix(-0.23118859375941167,0.20816314481650475,-0.20816314481650475,-0.23118859375941167,696.6568817844613,674.9690130777996)" filter="url(#llleaves-blur-2)" opacity="0.48"></path><path d="M526 45H576C604 45 626 67 626 95H576C548 95 526 73 526 45Z " transform="matrix(-0.3563094188059795,0.05643386787994591,-0.05643386787994591,-0.3563094188059795,785.1845959838404,62.43575141756972)" filter="url(#llleaves-blur-2)" opacity="0.55"></path><path d="M1025 711H1075C1103 711 1125 733 1125 761H1075C1047 761 1025 739 1025 711Z " transform="matrix(-0.3220964503541087,-0.30035979914659666,0.30035979914659666,-0.3220964503541087,1200.1888719587716,1295.9497715432153)" opacity="0.68"></path><path d="M744 445H794C822 445 844 467 844 495H794C766 495 744 473 744 445Z " transform="matrix(-0.3591724541569322,0.050478396509321795,-0.050478396509321795,-0.3591724541569322,1102.9077749599853,598.7312066253567)" filter="url(#llleaves-blur-2)" opacity="0.56"></path><path d="M468 158H518C546 158 568 180 568 208H518C490 208 468 186 468 158Z " transform="matrix(-0.2500125866468901,0.19533124039298053,-0.19533124039298053,-0.2500125866468901,683.2521368750045,127.57072083281696)" filter="url(#llleaves-blur-2)" opacity="0.49"></path><path d="M1193 43H1243C1271 43 1293 65 1293 93H1243C1215 93 1193 71 1193 43Z " transform="matrix(-0.15733794368128018,-0.4569425675103199,0.4569425675103199,-0.15733794368128018,1407.4989694051296,646.6785915856548)" opacity="0.74"></path><path d="M1111 137H1161C1189 137 1211 159 1211 187H1161C1133 187 1111 165 1111 137Z " transform="matrix(-0.24573536822840106,-0.39325879478252723,0.39325879478252723,-0.24573536822840106,1382.5908377584042,658.3825903955151)" opacity="0.71"></path><path d="M901 240H951C979 240 1001 262 1001 290H951C923 290 901 268 901 240Z " transform="matrix(-0.37886086356343235,-0.15306972482218184,0.15306972482218184,-0.37886086356343235,1270.733204170946,510.96743715020443)" opacity="0.63"></path><path d="M1166 715H1216C1244 715 1266 737 1266 765H1216C1188 765 1166 743 1166 715Z " transform="matrix(-0.20731895620618376,-0.425066852341748,0.425066852341748,-0.20731895620618376,1153.5503800138258,1410.2973200401416)" opacity="0.73"></path><path d="M1317 516H1367C1395 516 1417 538 1417 566H1367C1339 566 1317 544 1317 516Z " transform="matrix(-0.12662321868489865,-0.4725642855499468,0.4725642855499468,-0.12662321868489865,1284.4366614597352,1255.4985396553075)" opacity="0.75"></path><path d="M1204 218H1254C1282 218 1304 240 1304 268H1254C1226 268 1204 246 1204 218Z " transform="matrix(-0.1866604782285409,-0.43974452924050106,0.43974452924050106,-0.1866604782285409,1381.2143190931486,839.7981358771239)" opacity="0.73"></path><path d="M218 433H268C296 433 318 455 318 483H268C240 483 218 461 218 433Z " transform="matrix(-0.18706978954287673,0.23101195118010906,-0.23101195118010906,-0.18706978954287673,423.9381772379809,481.7667606943683)" filter="url(#llleaves-blur-3)" opacity="0.45"></path><path d="M1298 360H1348C1376 360 1398 382 1398 410H1348C1320 410 1298 388 1298 360Z " transform="matrix(-0.13439737523418607,-0.46869934760600757,0.46869934760600757,-0.13439737523418607,1348.71841298737,1068.5497100380599)" opacity="0.75"></path><path d="M678 580H728C756 580 778 602 778 630H728C700 630 678 608 678 580Z " transform="matrix(-0.3344957259204943,0.10226560623068212,-0.10226560623068212,-0.3344957259204943,1033.3835802396825,732.9205528459624)" filter="url(#llleaves-blur-2)" opacity="0.54"></path><path d="M9 565H59C87 565 109 587 109 615H59C31 615 9 593 9 565Z " transform="matrix(-0.16171492596363096,0.23975223725960687,-0.23975223725960687,-0.16171492596363096,209.9950006150223,671.2664243202255)" filter="url(#llleaves-blur-3)" opacity="0.44"></path><path d="M740 236H790C818 236 840 258 840 286H790C762 286 740 264 740 236Z " transform="matrix(-0.3591724541569322,0.050478396509321795,-0.050478396509321795,-0.3591724541569322,1086.9211002729096,314.8660772925951)" filter="url(#llleaves-blur-2)" opacity="0.56"></path><path d="M1182 467H1232C1260 467 1282 489 1282 517H1232C1204 517 1182 495 1182 467Z " transform="matrix(-0.20731895620618376,-0.425066852341748,0.425066852341748,-0.20731895620618376,1278.2840626938785,1117.683288538476)" opacity="0.73"></path><path d="M671 131H721C749 131 771 153 771 181H721C693 181 671 159 671 131Z " transform="matrix(-0.34865194222859547,0.07410825805968543,-0.07410825805968543,-0.34865194222859547,983.9389386041281,156.95764892662768)" filter="url(#llleaves-blur-2)" opacity="0.55"></path><path d="M129 38H179C207 38 229 60 229 88H179C151 88 129 66 129 38Z " transform="matrix(-0.32752557076528593,0.11277609807294639,-0.11277609807294639,-0.32752557076528593,244.7319713455818,63.447189403155605)" filter="url(#llleaves-blur-2)" opacity="0.53"></path><path d="M1317 209H1367C1395 209 1417 231 1417 259H1367C1339 259 1317 237 1317 209Z " transform="matrix(-0.12662321868489865,-0.4725642855499468,0.4725642855499468,-0.12662321868489865,1429.513897123569,909.6252115190435)" opacity="0.75"></path><path d="M1051 247H1101C1129 247 1151 269 1151 297H1101C1073 297 1051 275 1051 247Z " transform="matrix(-0.29964967225765426,-0.33279467607381663,0.33279467607381663,-0.29964967225765426,1340.3941372635993,719.9116492113541)" opacity="0.69"></path><path d="M1222 597H1272C1300 597 1322 619 1322 647H1272C1244 647 1222 625 1222 597Z " transform="matrix(-0.1866604782285409,-0.43974452924050106,0.43974452924050106,-0.1866604782285409,1235.9110311191123,1297.4578586520697)" opacity="0.73"></path><path d="M622 710H672C700 710 722 732 722 760H672C644 760 622 738 622 710Z " transform="matrix(-0.30922146736451844,0.13767426738388108,-0.13767426738388108,-0.30922146736451844,980.9874125961089,869.7606708309529)" filter="url(#llleaves-blur-2)" opacity="0.52"></path><path d="M257 589H307C335 589 357 611 357 639H307C279 639 257 617 257 589Z " transform="matrix(-0.1922952258765851,0.22916852627713535,-0.22916852627713535,-0.1922952258765851,506.7441094782727,661.7145311211427)" filter="url(#llleaves-blur-3)" opacity="0.46"></path></g></svg>