<svg width="288" height="73" viewBox="0 0 288 73" fill="none" xmlns="http://www.w3.org/2000/svg">
<rect y="1" width="124" height="70" fill="#857FF7"/>
<path d="M52.892 36.1818C52.892 40.9403 51.9901 44.9886 50.1861 48.3267C48.3963 51.6648 45.9531 54.2145 42.8565 55.9759C39.7741 57.723 36.3082 58.5966 32.4588 58.5966C28.581 58.5966 25.1009 57.7159 22.0185 55.9545C18.9361 54.1932 16.5 51.6435 14.7102 48.3054C12.9205 44.9673 12.0256 40.9261 12.0256 36.1818C12.0256 31.4233 12.9205 27.375 14.7102 24.0369C16.5 20.6989 18.9361 18.1562 22.0185 16.4091C25.1009 14.6477 28.581 13.767 32.4588 13.767C36.3082 13.767 39.7741 14.6477 42.8565 16.4091C45.9531 18.1562 48.3963 20.6989 50.1861 24.0369C51.9901 27.375 52.892 31.4233 52.892 36.1818ZM43.5384 36.1818C43.5384 33.0994 43.0767 30.5 42.1534 28.3835C41.2443 26.267 39.9588 24.6619 38.2969 23.5682C36.6349 22.4744 34.6889 21.9276 32.4588 21.9276C30.2287 21.9276 28.2827 22.4744 26.6207 23.5682C24.9588 24.6619 23.6662 26.267 22.7429 28.3835C21.8338 30.5 21.3793 33.0994 21.3793 36.1818C21.3793 39.2642 21.8338 41.8636 22.7429 43.9801C23.6662 46.0966 24.9588 47.7017 26.6207 48.7955C28.2827 49.8892 30.2287 50.4361 32.4588 50.4361C34.6889 50.4361 36.6349 49.8892 38.2969 48.7955C39.9588 47.7017 41.2443 46.0966 42.1534 43.9801C43.0767 41.8636 43.5384 39.2642 43.5384 36.1818ZM66.326 14.3636L75.1257 29.2358H75.4666L84.309 14.3636H94.728L81.4112 36.1818L95.0263 58H84.4155L75.4666 43.1065H75.1257L66.1768 58H55.6087L69.2663 36.1818L55.8643 14.3636H66.326ZM109.792 14.3636V58H100.566V14.3636H109.792Z" fill="white"/>
<path d="M131.859 58H127.683L143.557 14.3636H147.818L163.692 58H159.516L145.837 19.5412H145.538L131.859 58ZM134.864 41.2741H156.511V44.8537H134.864V41.2741ZM171.17 58V14.3636H175.155V54.4205H195.95V58H171.17ZM233.413 28C233.015 26.5511 232.433 25.1946 231.666 23.9304C230.899 22.652 229.947 21.5369 228.811 20.5852C227.689 19.6193 226.389 18.8665 224.912 18.3267C223.449 17.7869 221.815 17.517 220.011 17.517C217.17 17.517 214.627 18.2557 212.383 19.733C210.139 21.2102 208.363 23.3409 207.056 26.125C205.764 28.9091 205.118 32.2614 205.118 36.1818C205.118 40.0881 205.771 43.4332 207.078 46.2173C208.385 49.0014 210.174 51.1392 212.447 52.6307C214.734 54.108 217.348 54.8466 220.288 54.8466C222.973 54.8466 225.345 54.25 227.404 53.0568C229.464 51.8636 231.069 50.1591 232.22 47.9432C233.385 45.7273 233.953 43.0923 233.924 40.0384L235.203 40.4432H221.225V36.8636H237.802V40.4432C237.802 44.1648 237.049 47.3821 235.544 50.0952C234.038 52.8082 231.971 54.9034 229.343 56.3807C226.716 57.858 223.697 58.5966 220.288 58.5966C216.481 58.5966 213.15 57.6804 210.295 55.848C207.44 54.0014 205.217 51.402 203.626 48.0497C202.049 44.6832 201.261 40.7273 201.261 36.1818C201.261 32.7585 201.716 29.669 202.625 26.9134C203.534 24.1577 204.819 21.7997 206.481 19.8395C208.157 17.8793 210.139 16.3807 212.426 15.3438C214.713 14.2926 217.241 13.767 220.011 13.767C222.397 13.767 224.578 14.1435 226.552 14.8963C228.541 15.6491 230.288 16.6861 231.794 18.0071C233.314 19.3139 234.556 20.8267 235.522 22.5455C236.502 24.25 237.163 26.0682 237.504 28H233.413ZM283.468 36.1818C283.468 40.7273 282.658 44.6832 281.039 48.0497C279.42 51.402 277.19 54.0014 274.349 55.848C271.522 57.6804 268.269 58.5966 264.59 58.5966C260.911 58.5966 257.651 57.6804 254.81 55.848C251.984 54.0014 249.761 51.402 248.141 48.0497C246.536 44.6832 245.734 40.7273 245.734 36.1818C245.734 31.6364 246.536 27.6875 248.141 24.3352C249.761 20.9687 251.991 18.3693 254.832 16.5369C257.673 14.6903 260.925 13.767 264.59 13.767C268.269 13.767 271.522 14.6903 274.349 16.5369C277.19 18.3693 279.42 20.9687 281.039 24.3352C282.658 27.6875 283.468 31.6364 283.468 36.1818ZM279.59 36.1818C279.59 32.2756 278.937 28.9304 277.63 26.1463C276.323 23.348 274.54 21.2102 272.282 19.733C270.023 18.2557 267.46 17.517 264.59 17.517C261.735 17.517 259.178 18.2557 256.92 19.733C254.661 21.2102 252.871 23.3409 251.55 26.125C250.244 28.9091 249.59 32.2614 249.59 36.1818C249.59 40.0881 250.244 43.4332 251.55 46.2173C252.857 49.0014 254.64 51.1392 256.898 52.6307C259.157 54.108 261.721 54.8466 264.59 54.8466C267.46 54.8466 270.023 54.108 272.282 52.6307C274.555 51.1534 276.344 49.0227 277.651 46.2386C278.958 43.4403 279.604 40.0881 279.59 36.1818Z" fill="#857FF7"/>
</svg>
